<?xml version="1.0" encoding="UTF-8"?>
<svg width="25px" height="25px" viewBox="0 0 25 25" version="1.1" xmlns="http://www.w3.org/2000/svg" xmlns:xlink="http://www.w3.org/1999/xlink">
    <title>appearance</title>
    <g id="Browser-UI's" stroke="none" stroke-width="1" fill="none" fill-rule="evenodd">
        <g id="Browser-Dark-Theme---Sidebar---Settings" transform="translate(-364.000000, -227.000000)" fill="#FFFFFF" fill-rule="nonzero">
            <g id="appearance" transform="translate(364.000000, 227.000000)">
                <path d="M17.7410914,8.38541184 C16.9071718,8.60697572 16.4107216,9.46257336 16.6321959,10.2965168 C16.8536702,11.1304603 17.7092145,11.6270023 18.5431818,11.4056176 C19.377149,11.1842329 19.873783,10.3287419 19.6524878,9.49475087 C19.5461877,9.09413953 19.2850677,8.75217971 18.9265936,8.54412801 C18.5681196,8.33607631 18.1416685,8.27898263 17.7410914,8.38541184 Z" id="Path"></path>
                <path d="M12.532927,5.26051316 C11.6990073,5.48207704 11.2025571,6.33767467 11.4240315,7.17161813 C11.6455058,8.00556158 12.5010501,8.50210364 13.3350173,8.28071891 C14.1689845,8.05933417 14.6656185,7.2038432 14.4443233,6.36985219 C14.3380232,5.96924085 14.0769032,5.62728103 13.7184291,5.41922933 C13.3599551,5.21117763 12.933504,5.15408395 12.532927,5.26051316 L12.532927,5.26051316 Z" id="Path"></path>
                <path d="M7.32476251,8.38541184 C6.49084285,8.60697572 5.99439268,9.46257336 6.21586699,10.2965168 C6.4373413,11.1304603 7.2928856,11.6270023 8.12685284,11.4056176 C8.96082007,11.1842329 9.45745403,10.3287419 9.23615887,9.49475087 C9.12985874,9.09413953 8.86873873,8.75217971 8.51026467,8.54412801 C8.15179062,8.33607631 7.72533957,8.27898263 7.32476251,8.38541184 Z" id="Path"></path>
                <path d="M7.32476251,14.6352092 C6.49084285,14.8567731 5.99439268,15.7123707 6.21586699,16.5463142 C6.4373413,17.3802576 7.2928856,17.8767997 8.12685284,17.6554149 C8.96082007,17.4340302 9.45745403,16.5785392 9.23615887,15.7445482 C9.12985874,15.3439369 8.86873873,15.0019771 8.51026467,14.7939254 C8.15179062,14.5858737 7.72533957,14.52878 7.32476251,14.6352092 Z" id="Path"></path>
                <path d="M12.9339556,0.00755847724 C9.54552142,-0.110260771 6.25458955,1.15345273 3.8158814,3.50888695 C1.37717325,5.86432118 0,9.10937982 0,12.4998618 C0.00803595018,19.399866 5.59959052,24.9914205 12.4995947,24.9994565 C12.8516666,24.9994565 13.1974888,24.9765406 13.5412276,24.9473748 C14.0820842,24.9017852 14.4972814,24.4485132 14.4953633,23.905742 L14.4620311,20.1683631 C14.4447789,18.6576908 15.3439613,17.2869851 16.7365218,16.7011493 C18.1290823,16.1153135 19.7377155,16.4310072 20.8055754,17.4996997 L20.9097387,17.6038629 C21.3903658,18.0885855 22.0857557,18.2933895 22.7523873,18.1465537 C23.4081317,18.0089129 23.948678,17.5468774 24.1867158,16.9205518 C24.7618173,15.4104929 25.0367371,13.8027249 24.9960645,12.1873719 C24.753018,5.60908122 19.509576,0.314472664 12.9339556,0.00755847724 L12.9339556,0.00755847724 Z M22.2899023,16.048705 L22.2753194,16.0341222 C20.6100504,14.3716243 18.105218,13.8802974 15.935306,14.7905184 C13.765394,15.7007394 12.3606763,17.8320196 12.3798069,20.1850293 L12.4048061,22.9161907 C6.65202651,22.8903032 2.00946317,18.2057679 2.03524293,12.4529883 C2.06123818,6.70020867 6.74577347,2.05764533 12.4985531,2.08342509 C12.6204241,2.08342509 12.7433368,2.08342509 12.8662495,2.08978263 C18.3439183,2.34706478 22.710904,6.75842215 22.9127988,12.2384119 C22.9471802,13.533773 22.7369139,14.8239955 22.2930272,16.0414136 L22.2899023,16.048705 Z" id="Shape"></path>
            </g>
        </g>
    </g>
</svg>