<?xml version="1.0" encoding="UTF-8"?>
<svg width="15px" height="15px" viewBox="0 0 15 15" version="1.1" xmlns="http://www.w3.org/2000/svg" xmlns:xlink="http://www.w3.org/1999/xlink">
    <title>appearance_dark</title>
    <g id="Browser-UI's" stroke="none" stroke-width="1" fill="none" fill-rule="evenodd">
        <g id="Browser-White-Theme---Sidebar---Settings" transform="translate(-364.000000, -227.000000)" fill="#1B1C1E" fill-rule="nonzero">
            <g id="appearance_dark" transform="translate(364.000000, 227.000000)">
                <path d="M10.6446549,5.0312471 C10.1443031,5.16418543 9.84643297,5.67754401 9.97931755,6.17791008 C10.1122021,6.67827616 10.6255287,6.97620139 11.1259091,6.84337055 C11.6262894,6.71053971 11.9242698,6.19724513 11.7914927,5.69685052 C11.7277126,5.45648372 11.5710406,5.25130783 11.3559562,5.12647681 C11.1408717,5.00164579 10.8850011,4.96738958 10.6446549,5.0312471 Z" id="Path"></path>
                <path d="M7.51975619,3.1563079 C7.01940439,3.28924622 6.72153429,3.8026048 6.85441887,4.30297088 C6.98730346,4.80333695 7.50063004,5.10126219 8.00101038,4.96843134 C8.50139073,4.8356005 8.7993711,4.32230592 8.666594,3.82191131 C8.60281393,3.58154451 8.44614192,3.37636862 8.23105748,3.2515376 C8.01597305,3.12670658 7.76010242,3.09245037 7.51975619,3.1563079 L7.51975619,3.1563079 Z" id="Path"></path>
                <path d="M4.3948575,5.0312471 C3.89450571,5.16418543 3.59663561,5.67754401 3.72952019,6.17791008 C3.86240478,6.67827616 4.37573136,6.97620139 4.8761117,6.84337055 C5.37649204,6.71053971 5.67447242,6.19724513 5.54169532,5.69685052 C5.47791524,5.45648372 5.32124324,5.25130783 5.1061588,5.12647681 C4.89107437,5.00164579 4.63520374,4.96738958 4.3948575,5.0312471 Z" id="Path"></path>
                <path d="M4.3948575,8.78112552 C3.89450571,8.91406385 3.59663561,9.42742243 3.72952019,9.9277885 C3.86240478,10.4281546 4.37573136,10.7260798 4.8761117,10.593249 C5.37649204,10.4604181 5.67447242,9.94712355 5.54169532,9.44672894 C5.47791524,9.20636214 5.32124324,9.00118624 5.1061588,8.87635522 C4.89107437,8.7515242 4.63520374,8.717268 4.3948575,8.78112552 Z" id="Path"></path>
                <path d="M7.76037338,0.00453508635 C5.72731285,-0.0661564627 3.75275373,0.692071636 2.28952884,2.10533217 C0.826303951,3.51859271 0,5.46562789 0,7.49991706 C0.00482157011,11.6399196 3.35975431,14.9948523 7.49975683,14.9996739 C7.71099998,14.9996739 7.91849326,14.9859243 8.12473657,14.9684249 C8.44925055,14.9410711 8.69836882,14.6691079 8.69721801,14.3434452 L8.67721866,12.1010179 C8.66686735,11.1946145 9.20637677,10.372191 10.0419131,10.0206896 C10.8774494,9.66918807 11.8426293,9.85860431 12.4833453,10.4998198 L12.5458432,10.5623178 C12.8342195,10.8531513 13.2514534,10.9760337 13.6514324,10.8879322 C14.044879,10.8053478 14.3692068,10.5281264 14.5120295,10.1523311 C14.8570904,9.24629576 15.0220423,8.28163491 14.9976387,7.31242314 C14.8518108,3.36544873 11.7057456,0.188683598 7.76037338,0.00453508635 L7.76037338,0.00453508635 Z M13.3739414,9.62922302 L13.3651917,9.62047331 C12.3660302,8.62297459 10.8631308,8.32817846 9.56118359,8.87431105 C8.2592364,9.42044363 7.41640578,10.6992118 7.42788416,12.1110176 L7.44288368,13.7497144 C3.99121591,13.7341819 1.2056779,10.9234607 1.22114576,7.47179297 C1.23674291,4.0201252 4.04746408,1.2345872 7.49913185,1.25005506 C7.57225448,1.25005506 7.64600209,1.25005506 7.7197497,1.25386958 C11.006351,1.40823887 13.6265424,4.05505329 13.7476793,7.34304715 C13.7683081,8.12026378 13.6421483,8.89439728 13.3758163,9.62484817 L13.3739414,9.62922302 Z" id="Shape"></path>
            </g>
        </g>
    </g>
</svg>