<?xml version="1.0" encoding="UTF-8"?>
<svg width="25px" height="25px" viewBox="0 0 25 25" version="1.1" xmlns="http://www.w3.org/2000/svg" xmlns:xlink="http://www.w3.org/1999/xlink">
    <title>auto_fill</title>
    <g id="Browser-UI's" stroke="none" stroke-width="1" fill="none" fill-rule="evenodd">
        <g id="Browser-Dark-Theme---Sidebar---Settings" transform="translate(-364.000000, -462.000000)" fill="#FFFFFF" fill-rule="nonzero">
            <g id="auto_fill" transform="translate(364.000000, 462.000000)">
                <path d="M2.52083333,6.76041667 C2.05208333,6.42708333 1.9375,5.78125 2.27083333,5.3125 C3.10416667,4.13541667 4.125,3.11458333 5.30208333,2.28125 C5.77083333,1.94791667 6.42708333,2.0625 6.75,2.53125 C7.08333333,3 6.96875,3.65625 6.5,3.97916667 C5.52083333,4.67708333 4.66666667,5.52083333 3.96875,6.51041667 C3.77083333,6.80208333 3.44791667,6.94791667 3.11458333,6.94791667 C2.90625,6.94791667 2.69791667,6.88541667 2.51041667,6.76041667 L2.52083333,6.76041667 Z M3.97916667,18.4895833 C3.64583333,18.0208333 3,17.90625 2.53125,18.2395833 C2.0625,18.5729167 1.94791667,19.21875 2.28125,19.6875 C3.11458333,20.8645833 4.13541667,21.8854167 5.3125,22.71875 C5.48958333,22.84375 5.70833333,22.90625 5.91666667,22.90625 C6.23958333,22.90625 6.5625,22.75 6.77083333,22.46875 C7.10416667,22 6.98958333,21.34375 6.52083333,21.0208333 C5.53125,20.3229167 4.6875,19.4791667 3.98958333,18.4895833 L3.97916667,18.4895833 Z M2.08333333,12.5 C2.08333333,11.8645833 2.13541667,11.2291667 2.25,10.6145833 C2.35416667,10.0520833 1.97916667,9.51041667 1.41666667,9.40625 C0.854166667,9.30208333 0.3125,9.67708333 0.208333333,10.2395833 C0.0729166667,10.9791667 0,11.7395833 0,12.5 C0,13.2604167 0.0729166667,14.0208333 0.208333333,14.7604167 C0.302083333,15.2604167 0.739583333,15.6145833 1.22916667,15.6145833 C1.29166667,15.6145833 1.35416667,15.6145833 1.41666667,15.59375 C1.97916667,15.4895833 2.35416667,14.9479167 2.25,14.3854167 C2.13541667,13.7708333 2.08333333,13.1354167 2.08333333,12.5 Z M21.0208333,18.4895833 C20.3229167,19.4791667 19.4791667,20.3229167 18.4895833,21.0208333 C18.0208333,21.3541667 17.90625,22 18.2395833,22.46875 C18.4375,22.7604167 18.7604167,22.90625 19.09375,22.90625 C19.3020833,22.90625 19.5104167,22.84375 19.6979167,22.71875 C20.875,21.8854167 21.8958333,20.8645833 22.7291667,19.6875 C23.0625,19.21875 22.9479167,18.5625 22.4791667,18.2395833 C22.0104167,17.90625 21.3541667,18.0208333 21.03125,18.4895833 L21.0208333,18.4895833 Z M14.3854167,22.75 C13.7708333,22.8645833 13.1354167,22.9166667 12.5,22.9166667 C11.8645833,22.9166667 11.2291667,22.8645833 10.6145833,22.75 C10.0520833,22.6458333 9.51041667,23.0208333 9.40625,23.5833333 C9.30208333,24.1458333 9.67708333,24.6875 10.2395833,24.7916667 C10.9791667,24.9270833 11.7395833,25 12.5,25 C13.2604167,25 14.0208333,24.9270833 14.7604167,24.7916667 C15.3229167,24.6875 15.6979167,24.1458333 15.59375,23.5833333 C15.4895833,23.0208333 14.9479167,22.6354167 14.3854167,22.75 Z M14.7604167,0.208333333 C14.0208333,0.0729166667 13.2604167,0 12.5,0 C11.7395833,0 10.9791667,0.0729166667 10.2395833,0.208333333 C9.67708333,0.3125 9.30208333,0.854166667 9.40625,1.41666667 C9.5,1.91666667 9.9375,2.27083333 10.4270833,2.27083333 C10.4895833,2.27083333 11.8645833,2.08333333 12.5,2.08333333 C13.1354167,2.08333333 14.5104167,2.27083333 14.5729167,2.27083333 C15.0625,2.27083333 15.5,1.91666667 15.59375,1.41666667 C15.6979167,0.854166667 15.3229167,0.3125 14.7604167,0.208333333 Z M21.0208333,6.51041667 C21.21875,6.80208333 21.5416667,6.94791667 21.875,6.94791667 C22.0833333,6.94791667 22.2916667,6.88541667 22.4791667,6.76041667 C22.9479167,6.42708333 23.0625,5.78125 22.7291667,5.3125 C21.8958333,4.13541667 20.875,3.11458333 19.6979167,2.28125 C19.2291667,1.94791667 18.5729167,2.0625 18.25,2.53125 C17.9166667,3 18.03125,3.65625 18.5,3.97916667 C19.4895833,4.67708333 20.3333333,5.52083333 21.03125,6.51041667 L21.0208333,6.51041667 Z M24.7916667,10.2395833 C24.6875,9.67708333 24.1458333,9.29166667 23.5833333,9.40625 C23.0208333,9.51041667 22.6458333,10.0520833 22.75,10.6145833 C22.8645833,11.2291667 22.9166667,11.8645833 22.9166667,12.5 C22.9166667,13.1354167 22.8645833,13.7708333 22.75,14.3854167 C22.6458333,14.9479167 23.0208333,15.4895833 23.5833333,15.59375 C23.6458333,15.6041667 23.7083333,15.6145833 23.7708333,15.6145833 C24.2604167,15.6145833 24.6979167,15.2604167 24.7916667,14.7604167 C24.9270833,14.0208333 25,13.2604167 25,12.5 C25,11.7395833 24.9270833,10.9791667 24.7916667,10.2395833 Z" id="Shape"></path>
            </g>
        </g>
    </g>
</svg>