<?xml version="1.0" encoding="UTF-8"?>
<svg width="15px" height="15px" viewBox="0 0 15 15" version="1.1" xmlns="http://www.w3.org/2000/svg" xmlns:xlink="http://www.w3.org/1999/xlink">
    <title>auto_fill_dark</title>
    <g id="Browser-UI's" stroke="none" stroke-width="1" fill="none" fill-rule="evenodd">
        <g id="Browser-White-Theme---Sidebar---Settings" transform="translate(-364.000000, -462.000000)" fill="#1B1C1E" fill-rule="nonzero">
            <g id="auto_fill_dark" transform="translate(364.000000, 462.000000)">
                <path d="M1.5125,4.05625 C1.23125,3.85625 1.1625,3.46875 1.3625,3.1875 C1.8625,2.48125 2.475,1.86875 3.18125,1.36875 C3.4625,1.16875 3.85625,1.2375 4.05,1.51875 C4.25,1.8 4.18125,2.19375 3.9,2.3875 C3.3125,2.80625 2.8,3.3125 2.38125,3.90625 C2.2625,4.08125 2.06875,4.16875 1.86875,4.16875 C1.74375,4.16875 1.61875,4.13125 1.50625,4.05625 L1.5125,4.05625 Z M2.3875,11.09375 C2.1875,10.8125 1.8,10.74375 1.51875,10.94375 C1.2375,11.14375 1.16875,11.53125 1.36875,11.8125 C1.86875,12.51875 2.48125,13.13125 3.1875,13.63125 C3.29375,13.70625 3.425,13.74375 3.55,13.74375 C3.74375,13.74375 3.9375,13.65 4.0625,13.48125 C4.2625,13.2 4.19375,12.80625 3.9125,12.6125 C3.31875,12.19375 2.8125,11.6875 2.39375,11.09375 L2.3875,11.09375 Z M1.25,7.5 C1.25,7.11875 1.28125,6.7375 1.35,6.36875 C1.4125,6.03125 1.1875,5.70625 0.85,5.64375 C0.5125,5.58125 0.1875,5.80625 0.125,6.14375 C0.04375,6.5875 0,7.04375 0,7.5 C0,7.95625 0.04375,8.4125 0.125,8.85625 C0.18125,9.15625 0.44375,9.36875 0.7375,9.36875 C0.775,9.36875 0.8125,9.36875 0.85,9.35625 C1.1875,9.29375 1.4125,8.96875 1.35,8.63125 C1.28125,8.2625 1.25,7.88125 1.25,7.5 Z M12.6125,11.09375 C12.19375,11.6875 11.6875,12.19375 11.09375,12.6125 C10.8125,12.8125 10.74375,13.2 10.94375,13.48125 C11.0625,13.65625 11.25625,13.74375 11.45625,13.74375 C11.58125,13.74375 11.70625,13.70625 11.81875,13.63125 C12.525,13.13125 13.1375,12.51875 13.6375,11.8125 C13.8375,11.53125 13.76875,11.1375 13.4875,10.94375 C13.20625,10.74375 12.8125,10.8125 12.61875,11.09375 L12.6125,11.09375 Z M8.63125,13.65 C8.2625,13.71875 7.88125,13.75 7.5,13.75 C7.11875,13.75 6.7375,13.71875 6.36875,13.65 C6.03125,13.5875 5.70625,13.8125 5.64375,14.15 C5.58125,14.4875 5.80625,14.8125 6.14375,14.875 C6.5875,14.95625 7.04375,15 7.5,15 C7.95625,15 8.4125,14.95625 8.85625,14.875 C9.19375,14.8125 9.41875,14.4875 9.35625,14.15 C9.29375,13.8125 8.96875,13.58125 8.63125,13.65 Z M8.85625,0.125 C8.4125,0.04375 7.95625,0 7.5,0 C7.04375,0 6.5875,0.04375 6.14375,0.125 C5.80625,0.1875 5.58125,0.5125 5.64375,0.85 C5.7,1.15 5.9625,1.3625 6.25625,1.3625 C6.29375,1.3625 7.11875,1.25 7.5,1.25 C7.88125,1.25 8.70625,1.3625 8.74375,1.3625 C9.0375,1.3625 9.3,1.15 9.35625,0.85 C9.41875,0.5125 9.19375,0.1875 8.85625,0.125 Z M12.6125,3.90625 C12.73125,4.08125 12.925,4.16875 13.125,4.16875 C13.25,4.16875 13.375,4.13125 13.4875,4.05625 C13.76875,3.85625 13.8375,3.46875 13.6375,3.1875 C13.1375,2.48125 12.525,1.86875 11.81875,1.36875 C11.5375,1.16875 11.14375,1.2375 10.95,1.51875 C10.75,1.8 10.81875,2.19375 11.1,2.3875 C11.69375,2.80625 12.2,3.3125 12.61875,3.90625 L12.6125,3.90625 Z M14.875,6.14375 C14.8125,5.80625 14.4875,5.575 14.15,5.64375 C13.8125,5.70625 13.5875,6.03125 13.65,6.36875 C13.71875,6.7375 13.75,7.11875 13.75,7.5 C13.75,7.88125 13.71875,8.2625 13.65,8.63125 C13.5875,8.96875 13.8125,9.29375 14.15,9.35625 C14.1875,9.3625 14.225,9.36875 14.2625,9.36875 C14.55625,9.36875 14.81875,9.15625 14.875,8.85625 C14.95625,8.4125 15,7.95625 15,7.5 C15,7.04375 14.95625,6.5875 14.875,6.14375 Z" id="Shape"></path>
            </g>
        </g>
    </g>
</svg>