<?xml version="1.0" encoding="UTF-8"?>
<svg width="15px" height="15px" viewBox="0 0 15 15" version="1.1" xmlns="http://www.w3.org/2000/svg" xmlns:xlink="http://www.w3.org/1999/xlink">
    <title>download_dark</title>
    <g id="Browser-UI's" stroke="none" stroke-width="1" fill="none" fill-rule="evenodd">
        <g id="Browser-White-Theme---Sidebar---Settings" transform="translate(-364.000000, -532.000000)" fill="#1B1C1E" fill-rule="nonzero">
            <g id="download_dark" transform="translate(364.000000, 532.000000)">
                <path d="M6.17375977,11.3262598 C6.90577148,12.0587402 8.09293945,12.0591211 8.82541992,11.3271094 C8.82571289,11.3268164 8.82597656,11.3265527 8.82626953,11.3262598 L10.8331348,9.31939453 C11.0646387,9.06336914 11.0447461,8.668125 10.7887207,8.43662109 C10.550332,8.22108398 10.1873437,8.22146484 9.94939453,8.4375 L8.1206543,10.2668848 L8.12501953,0.625019531 C8.12499023,0.279814453 7.84517578,0 7.5,0 L7.5,0 C7.15482422,0 6.87500977,0.279814453 6.87500977,0.624990234 L6.86938477,10.2549902 L5.05063477,8.4375 C4.80641602,8.19345703 4.41061523,8.19360352 4.16657227,8.43782227 C3.9225293,8.68204102 3.92267578,9.0778418 4.16689453,9.32188477 L6.17375977,11.3262598 Z" id="Path"></path>
                <path d="M14.3750098,9.99999023 L14.3750098,9.99999023 C14.029834,9.99999023 13.7500195,10.2798047 13.7500195,10.6249805 L13.7500195,13.125 C13.7500195,13.4701758 13.4702051,13.7499902 13.1250293,13.7499902 L1.875,13.7499902 C1.52982422,13.7499902 1.25000977,13.4701758 1.25000977,13.125 L1.25000977,10.6250098 C1.25000977,10.279834 0.970195313,9.99999023 0.625019531,9.99999023 L0.625019531,9.99999023 C0.279814453,9.99999023 0,10.279834 0,10.6250098 L0,13.125 C0,14.1605273 0.839472656,14.9999902 1.875,14.9999902 L13.125,14.9999902 C14.1605273,14.9999902 15,14.1605273 15,13.125 L15,10.6250098 C15,10.279834 14.7201855,9.99999023 14.3750098,9.99999023 Z" id="Path"></path>
            </g>
        </g>
    </g>
</svg>