<?xml version="1.0" encoding="UTF-8"?>
<svg width="25px" height="25px" viewBox="0 0 25 25" version="1.1" xmlns="http://www.w3.org/2000/svg" xmlns:xlink="http://www.w3.org/1999/xlink">
    <title>download</title>
    <g id="Browser-UI's" stroke="none" stroke-width="1" fill="none" fill-rule="evenodd">
        <g id="Browser-Dark-Theme---Sidebar---Settings" transform="translate(-364.000000, -532.000000)" fill="#FFFFFF" fill-rule="nonzero">
            <g id="download" transform="translate(364.000000, 532.000000)">
                <path d="M10.2895996,18.8770996 C11.5096191,20.0979004 13.4882324,20.0985352 14.7090332,18.8785156 C14.7095215,18.8780273 14.7099609,18.8775879 14.7104492,18.8770996 L18.0552246,15.5323242 C18.4410645,15.1056152 18.4079102,14.446875 17.9812012,14.0610352 C17.5838867,13.7018066 16.9789062,13.7024414 16.5823242,14.0625 L13.5344238,17.1114746 L13.5416992,1.04169922 C13.5416504,0.466357422 13.075293,0 12.5,0 L12.5,0 C11.924707,0 11.4583496,0.466357422 11.4583496,1.04165039 L11.4489746,17.0916504 L8.41772461,14.0625 C8.01069336,13.6557617 7.35102539,13.6560059 6.94428711,14.0630371 C6.53754883,14.4700684 6.53779297,15.1297363 6.94482422,15.5364746 L10.2895996,18.8770996 Z" id="Path"></path>
                <path d="M23.9583496,16.6666504 L23.9583496,16.6666504 C23.3830566,16.6666504 22.9166992,17.1330078 22.9166992,17.7083008 L22.9166992,21.875 C22.9166992,22.450293 22.4503418,22.9166504 21.8750488,22.9166504 L3.125,22.9166504 C2.54970703,22.9166504 2.08334961,22.450293 2.08334961,21.875 L2.08334961,17.7083496 C2.08334961,17.1330566 1.61699219,16.6666504 1.04169922,16.6666504 L1.04169922,16.6666504 C0.466357422,16.6666504 0,17.1330566 0,17.7083496 L0,21.875 C0,23.6008789 1.39912109,25 3.125,25 L21.875,25 C23.6008789,25 25,23.6008789 25,21.875 L25,17.7083496 C25,17.1330566 24.5336426,16.6666504 23.9583496,16.6666504 Z" id="Path"></path>
            </g>
        </g>
    </g>
</svg>