<?xml version="1.0" encoding="UTF-8"?>
<svg width="15px" height="15px" viewBox="0 0 15 15" version="1.1" xmlns="http://www.w3.org/2000/svg" xmlns:xlink="http://www.w3.org/1999/xlink">
    <title>extension_dark</title>
    <g id="Browser-UI's" stroke="none" stroke-width="1" fill="none" fill-rule="evenodd">
        <g id="Browser-White-Theme---Sidebar---Settings" transform="translate(-364.000000, -402.000000)" fill="#1B1C1E" fill-rule="nonzero">
            <g id="extension_dark" transform="translate(364.000000, 402.000000)">
                <path d="M10.625,8.125 L6.875,8.125 L6.875,4.375 C6.875,3.34125 6.03375,2.5 5,2.5 L2.5,2.5 C1.12125,2.5 0,3.62125 0,5 L0,12.5 C0,13.87875 1.12125,15 2.5,15 L10,15 C11.37875,15 12.5,13.87875 12.5,12.5 L12.5,10 C12.5,8.96625 11.65875,8.125 10.625,8.125 Z M1.25,5 C1.25,4.310625 1.810625,3.75 2.5,3.75 L5,3.75 C5.344375,3.75 5.625,4.03 5.625,4.375 L5.625,8.125 L4.196875,8.125 C4.308125,7.758125 4.375,7.3925 4.375,7.1875 C4.375,6.67 3.955,6.25 3.4375,6.25 C2.92,6.25 2.5,6.67 2.5,7.1875 C2.5,7.3925 2.56625,7.758125 2.678125,8.125 L1.25,8.125 L1.25,5 Z M5.625,13.75 L2.5,13.75 C1.810625,13.75 1.25,13.189375 1.25,12.5 L1.25,9.375 L5.625,9.375 L5.625,10.803125 C5.258125,10.691875 4.8925,10.625 4.6875,10.625 C4.17,10.625 3.75,11.045 3.75,11.5625 C3.75,12.08 4.17,12.5 4.6875,12.5 C4.8925,12.5 5.258125,12.43375 5.625,12.321875 L5.625,13.75 Z M11.25,12.5 C11.25,13.189375 10.689375,13.75 10,13.75 L6.875,13.75 L6.875,9.375 L8.303125,9.375 C8.191875,9.741875 8.125,10.1075 8.125,10.3125 C8.125,10.83 8.545,11.25 9.0625,11.25 C9.58,11.25 10,10.83 10,10.3125 C10,10.1075 9.93375,9.741875 9.821875,9.375 L10.625,9.375 C10.969375,9.375 11.25,9.655 11.25,10 L11.25,12.5 Z M15,2.5 L15,4.6875 C15,5.205 14.58,5.625 14.0625,5.625 L12.946875,5.625 C13.058125,5.991875 13.125,6.3575 13.125,6.5625 C13.125,7.08 12.705,7.5 12.1875,7.5 C11.67,7.5 11.25,7.08 11.25,6.5625 C11.25,6.3575 11.31625,5.991875 11.428125,5.625 L10.3125,5.625 C9.795,5.625 9.375,5.205 9.375,4.6875 L9.375,3.571875 C9.741875,3.683125 10.1075,3.75 10.3125,3.75 C10.83,3.75 11.25,3.33 11.25,2.8125 C11.25,2.295 10.83,1.875 10.3125,1.875 C10.1075,1.875 9.741875,1.94125 9.375,2.053125 L9.375,0.9375 C9.375,0.42 9.795,0 10.3125,0 L12.5,0 C13.880625,0 15,1.119375 15,2.5 Z" id="Shape"></path>
            </g>
        </g>
    </g>
</svg>