<?xml version="1.0" encoding="UTF-8"?>
<svg width="25px" height="25px" viewBox="0 0 25 25" version="1.1" xmlns="http://www.w3.org/2000/svg" xmlns:xlink="http://www.w3.org/1999/xlink">
    <title>extension</title>
    <g id="Browser-UI's" stroke="none" stroke-width="1" fill="none" fill-rule="evenodd">
        <g id="Browser-Dark-Theme---Sidebar---Settings" transform="translate(-364.000000, -402.000000)" fill="#FFFFFF" fill-rule="nonzero">
            <g id="extension" transform="translate(364.000000, 402.000000)">
                <path d="M17.7083333,13.5416667 L11.4583333,13.5416667 L11.4583333,7.29166667 C11.4583333,5.56875 10.05625,4.16666667 8.33333333,4.16666667 L4.16666667,4.16666667 C1.86875,4.16666667 0,6.03541667 0,8.33333333 L0,20.8333333 C0,23.13125 1.86875,25 4.16666667,25 L16.6666667,25 C18.9645833,25 20.8333333,23.13125 20.8333333,20.8333333 L20.8333333,16.6666667 C20.8333333,14.94375 19.43125,13.5416667 17.7083333,13.5416667 Z M2.08333333,8.33333333 C2.08333333,7.184375 3.01770833,6.25 4.16666667,6.25 L8.33333333,6.25 C8.90729167,6.25 9.375,6.71666667 9.375,7.29166667 L9.375,13.5416667 L6.99479167,13.5416667 C7.18020833,12.9302083 7.29166667,12.3208333 7.29166667,11.9791667 C7.29166667,11.1166667 6.59166667,10.4166667 5.72916667,10.4166667 C4.86666667,10.4166667 4.16666667,11.1166667 4.16666667,11.9791667 C4.16666667,12.3208333 4.27708333,12.9302083 4.46354167,13.5416667 L2.08333333,13.5416667 L2.08333333,8.33333333 Z M9.375,22.9166667 L4.16666667,22.9166667 C3.01770833,22.9166667 2.08333333,21.9822917 2.08333333,20.8333333 L2.08333333,15.625 L9.375,15.625 L9.375,18.0052083 C8.76354167,17.8197917 8.15416667,17.7083333 7.8125,17.7083333 C6.95,17.7083333 6.25,18.4083333 6.25,19.2708333 C6.25,20.1333333 6.95,20.8333333 7.8125,20.8333333 C8.15416667,20.8333333 8.76354167,20.7229167 9.375,20.5364583 L9.375,22.9166667 Z M18.75,20.8333333 C18.75,21.9822917 17.815625,22.9166667 16.6666667,22.9166667 L11.4583333,22.9166667 L11.4583333,15.625 L13.8385417,15.625 C13.653125,16.2364583 13.5416667,16.8458333 13.5416667,17.1875 C13.5416667,18.05 14.2416667,18.75 15.1041667,18.75 C15.9666667,18.75 16.6666667,18.05 16.6666667,17.1875 C16.6666667,16.8458333 16.55625,16.2364583 16.3697917,15.625 L17.7083333,15.625 C18.2822917,15.625 18.75,16.0916667 18.75,16.6666667 L18.75,20.8333333 Z M25,4.16666667 L25,7.8125 C25,8.675 24.3,9.375 23.4375,9.375 L21.578125,9.375 C21.7635417,9.98645833 21.875,10.5958333 21.875,10.9375 C21.875,11.8 21.175,12.5 20.3125,12.5 C19.45,12.5 18.75,11.8 18.75,10.9375 C18.75,10.5958333 18.8604167,9.98645833 19.046875,9.375 L17.1875,9.375 C16.325,9.375 15.625,8.675 15.625,7.8125 L15.625,5.953125 C16.2364583,6.13854167 16.8458333,6.25 17.1875,6.25 C18.05,6.25 18.75,5.55 18.75,4.6875 C18.75,3.825 18.05,3.125 17.1875,3.125 C16.8458333,3.125 16.2364583,3.23541667 15.625,3.421875 L15.625,1.5625 C15.625,0.7 16.325,0 17.1875,0 L20.8333333,0 C23.134375,0 25,1.865625 25,4.16666667 Z" id="Shape"></path>
            </g>
        </g>
    </g>
</svg>