<?xml version="1.0" encoding="UTF-8"?>
<svg width="15px" height="15px" viewBox="0 0 15 15" version="1.1" xmlns="http://www.w3.org/2000/svg" xmlns:xlink="http://www.w3.org/1999/xlink">
    <title>help_dark</title>
    <g id="Browser-UI's" stroke="none" stroke-width="1" fill="none" fill-rule="evenodd">
        <g id="Browser-White-Theme---Sidebar---Settings" transform="translate(-364.000000, -567.000000)" fill="#1B1C1E" fill-rule="nonzero">
            <g id="help_dark" transform="translate(364.000000, 567.000000)">
                <path d="M7.5,0 C3.35786438,0 0,3.35786438 0,7.5 C0,11.6421356 3.35786438,15 7.5,15 C11.6421356,15 15,11.6421356 15,7.5 C14.995522,3.35972066 11.6402793,0.00447802976 7.5,0 Z M7.5,13.125 C4.39339828,13.125 1.875,10.6066017 1.875,7.5 C1.875,4.39339828 4.39339828,1.875 7.5,1.875 C10.6066017,1.875 13.125,4.39339828 13.125,7.5 C13.1215555,10.6051739 10.6051739,13.1215555 7.5,13.125 L7.5,13.125 Z" id="Shape"></path>
                <circle id="Oval" cx="7.503125" cy="10.9375" r="1"></circle>
                <path d="M7.973125,3.116875 C7.19921563,2.97812509 6.4036017,3.18936153 5.80043982,3.69372549 C5.19727794,4.19808945 4.8485505,4.94375126 4.848125,5.73 C4.848125,6.24776695 5.26785805,6.6675 5.785625,6.6675 C6.30339195,6.6675 6.723125,6.24776695 6.723125,5.73 C6.72469555,5.34962384 7.00040823,5.02585146 7.37567607,4.9637022 C7.75094392,4.90155295 8.11631502,5.1191535 8.24042885,5.47871469 C8.36454267,5.83827587 8.21119976,6.23492684 7.8775,6.4175 C7.08588911,6.74904274 6.57974003,7.53335029 6.60375,8.39125 C6.60375,8.90901695 7.02348305,9.32875 7.54125,9.32875 C8.05901695,9.32875 8.47875,8.90901695 8.47875,8.39125 C8.4781738,8.34563072 8.48151945,8.30004631 8.48875,8.255 C8.57628185,8.17510635 8.67556405,8.10912901 8.783125,8.059375 C9.76694727,7.51709602 10.3029994,6.41432697 10.1216865,5.30567988 C9.9403736,4.19703279 9.08094286,3.32248701 7.975625,3.121875 L7.973125,3.116875 Z" id="Path"></path>
            </g>
        </g>
    </g>
</svg>