<?xml version="1.0" encoding="UTF-8"?>
<svg width="25px" height="25px" viewBox="0 0 25 25" version="1.1" xmlns="http://www.w3.org/2000/svg" xmlns:xlink="http://www.w3.org/1999/xlink">
    <title>help</title>
    <g id="Browser-UI's" stroke="none" stroke-width="1" fill="none" fill-rule="evenodd">
        <g id="Browser-Dark-Theme---Sidebar---Settings" transform="translate(-364.000000, -567.000000)" fill="#FFFFFF" fill-rule="nonzero">
            <g id="help" transform="translate(364.000000, 567.000000)">
                <path d="M12.5,0 C5.59644063,0 0,5.59644063 0,12.5 C0,19.4035594 5.59644063,25 12.5,25 C19.4035594,25 25,19.4035594 25,12.5 C24.9925366,5.59953443 19.4004656,0.00746338293 12.5,0 Z M12.5,21.875 C7.32233047,21.875 3.125,17.6776695 3.125,12.5 C3.125,7.32233047 7.32233047,3.125 12.5,3.125 C17.6776695,3.125 21.875,7.32233047 21.875,12.5 C21.8692592,17.6752898 17.6752898,21.8692592 12.5,21.875 L12.5,21.875 Z" id="Shape"></path>
                <circle id="Oval" cx="12.5052083" cy="18.2291667" r="1.5625"></circle>
                <path d="M13.2885417,5.19479167 C11.9986927,4.96354181 10.6726695,5.31560255 9.6673997,6.15620915 C8.6621299,6.99681576 8.08091751,8.23958544 8.08020833,9.55 C8.08020833,10.4129449 8.77976341,11.1125 9.64270833,11.1125 C10.5056533,11.1125 11.2052083,10.4129449 11.2052083,9.55 C11.2078259,8.91603974 11.667347,8.37641909 12.2927935,8.27283701 C12.9182399,8.16925492 13.5271917,8.5319225 13.7340481,9.13119114 C13.9409045,9.73045979 13.6853329,10.3915447 13.1291667,10.6958333 C11.8098152,11.2484046 10.9662334,12.5555838 11.00625,13.9854167 C11.00625,14.8483616 11.7058051,15.5479167 12.56875,15.5479167 C13.4316949,15.5479167 14.13125,14.8483616 14.13125,13.9854167 C14.1302897,13.9093845 14.1358657,13.8334105 14.1479167,13.7583333 C14.2938031,13.6251773 14.4592734,13.515215 14.6385417,13.4322917 C16.2782454,12.5284934 17.1716657,10.6905449 16.8694775,8.84279979 C16.5672893,6.99505464 15.1349048,5.53747835 13.2927083,5.203125 L13.2885417,5.19479167 Z" id="Path"></path>
            </g>
        </g>
    </g>
</svg>