<?xml version="1.0" encoding="UTF-8"?>
<svg width="15px" height="15px" viewBox="0 0 15 15" version="1.1" xmlns="http://www.w3.org/2000/svg" xmlns:xlink="http://www.w3.org/1999/xlink">
    <title>language_dark</title>
    <g id="Browser-UI's" stroke="none" stroke-width="1" fill="none" fill-rule="evenodd">
        <g id="Browser-White-Theme---Sidebar---Settings" transform="translate(-364.000000, -497.000000)" fill="#1B1C1E" fill-rule="nonzero">
            <g id="language_dark" transform="translate(364.000000, 497.000000)">
                <polygon id="Path" points="4.06376953 4.01367188 3.87568359 4.01367188 3.52420898 5.77148438 4.41524414 5.77148438"></polygon>
                <path d="M11.1730664,7.52929688 C11.3628223,8.0390332 11.6152148,8.45165039 11.8945312,8.80274414 C12.1738477,8.45165039 12.4555371,8.03900391 12.645293,7.52929688 L11.1730664,7.52929688 Z" id="Path"></path>
                <path d="M13.6816406,2.66601562 L8.22413086,2.66601562 L9.36208008,11.7972363 C9.38220703,12.1707129 9.28010742,12.522334 9.03635742,12.7976074 L7.10926758,15 L13.6816406,15 C14.4086133,15 15,14.4086133 15,13.6816406 L15,4.01367188 C15,3.28669922 14.4086133,2.66601562 13.6816406,2.66601562 Z M13.6816406,7.52929688 L13.5642773,7.52929688 C13.3142285,8.3315332 12.9176953,8.95927734 12.5056055,9.45416016 C12.8284277,9.74929688 13.1736328,9.99140625 13.5168457,10.2625781 C13.7061035,10.4140723 13.7370117,10.6904297 13.5850781,10.880127 C13.4338477,11.0695313 13.1564063,11.1002344 12.9675293,10.9483594 C12.5946094,10.6540137 12.2445703,10.407627 11.8945313,10.086416 C11.5444922,10.407627 11.22375,10.6540137 10.8508301,10.9483594 C10.6619531,11.1002344 10.3845117,11.0695313 10.2332813,10.880127 C10.0813477,10.6904297 10.1122559,10.4140723 10.3015137,10.2625781 C10.6447266,9.99140625 10.9606348,9.74929688 11.283457,9.45416016 C10.8713672,8.95930664 10.5041016,8.3315625 10.254082,7.52929688 L10.1367188,7.52929688 C9.89381836,7.52929688 9.69726563,7.33274414 9.69726563,7.08984375 C9.69726563,6.84694336 9.89381836,6.65039062 10.1367188,6.65039062 L11.4550781,6.65039062 L11.4550781,6.2109375 C11.4550781,5.96803711 11.6516309,5.77148438 11.8945313,5.77148438 C12.1374316,5.77148438 12.3339844,5.96803711 12.3339844,6.2109375 L12.3339844,6.65039062 L13.6816406,6.65039062 C13.924541,6.65039062 14.1210938,6.84694336 14.1210938,7.08984375 C14.1210938,7.33274414 13.924541,7.52929688 13.6816406,7.52929688 Z" id="Shape"></path>
                <path d="M7.15324219,1.15485352 C7.07126953,0.496523438 6.50865234,0 5.84519531,0 L1.31835938,0 C0.591386719,0 0,0.591386719 0,1.31835938 L0,11.0449219 C0,11.7718945 0.591386719,12.3632812 1.31835938,12.3632812 C3.94541016,12.3632812 5.83526367,12.3632812 8.24856445,12.3632812 C8.37676758,12.2167383 8.48422852,12.1249805 8.48877023,11.9337012 C8.48988281,11.8857422 7.15918945,1.20243164 7.15324219,1.15485352 Z M5.38898438,8.39961914 C5.15595703,8.44757812 4.91991211,8.29628906 4.87186523,8.055 L4.59099609,6.65039062 L3.34848633,6.65039062 L3.06761719,8.055 C3.02041992,8.29274414 2.79123047,8.44895508 2.55049805,8.39961914 C2.31275391,8.35198242 2.15824219,8.12068359 2.20587891,7.8825 L3.08475586,3.48796875 C3.12594727,3.28283203 3.30621094,3.13476562 3.515625,3.13476562 L4.42382812,3.13476562 C4.63324219,3.13476562 4.81350586,3.28283203 4.85469727,3.48796875 L5.73360352,7.8825 C5.78124023,8.12068359 5.62675781,8.35198242 5.38898438,8.39961914 Z" id="Shape"></path>
                <path d="M5.13459961,13.2421875 L5.21000977,13.8451465 C5.2602832,14.2489453 5.52858398,14.6607129 5.96991211,14.8663184 C6.80276367,13.949502 6.29888672,14.5041504 7.44527344,13.2421875 L5.13459961,13.2421875 Z" id="Path"></path>
            </g>
        </g>
    </g>
</svg>