<?xml version="1.0" encoding="UTF-8"?>
<svg width="25px" height="25px" viewBox="0 0 25 25" version="1.1" xmlns="http://www.w3.org/2000/svg" xmlns:xlink="http://www.w3.org/1999/xlink">
    <title>language</title>
    <g id="Browser-UI's" stroke="none" stroke-width="1" fill="none" fill-rule="evenodd">
        <g id="Browser-Dark-Theme---Sidebar---Settings" transform="translate(-364.000000, -497.000000)" fill="#FFFFFF" fill-rule="nonzero">
            <g id="language" transform="translate(364.000000, 497.000000)">
                <polygon id="Path" points="6.77294922 6.68945312 6.45947266 6.68945312 5.87368164 9.61914062 7.35874023 9.61914062"></polygon>
                <path d="M18.6217773,12.5488281 C18.9380371,13.3983887 19.3586914,14.086084 19.8242188,14.6712402 C20.2897461,14.086084 20.7592285,13.3983398 21.0754883,12.5488281 L18.6217773,12.5488281 Z" id="Path"></path>
                <path d="M22.8027344,4.44335938 L13.7068848,4.44335938 L15.6034668,19.6620605 C15.6370117,20.2845215 15.4668457,20.8705566 15.0605957,21.3293457 L11.8487793,25 L22.8027344,25 C24.0143555,25 25,24.0143555 25,22.8027344 L25,6.68945312 C25,5.47783203 24.0143555,4.44335938 22.8027344,4.44335938 Z M22.8027344,12.5488281 L22.6071289,12.5488281 C22.1903809,13.8858887 21.5294922,14.9321289 20.8426758,15.7569336 C21.3807129,16.2488281 21.9560547,16.6523438 22.5280762,17.1042969 C22.8435059,17.3567871 22.8950195,17.8173828 22.6417969,18.1335449 C22.3897461,18.4492188 21.9273437,18.5003906 21.6125488,18.2472656 C20.9910156,17.7566895 20.4076172,17.3460449 19.8242188,16.8106934 C19.2408203,17.3460449 18.70625,17.7566895 18.0847168,18.2472656 C17.7699219,18.5003906 17.3075195,18.4492188 17.0554687,18.1335449 C16.8022461,17.8173828 16.8537598,17.3567871 17.1691895,17.1042969 C17.7412109,16.6523438 18.2677246,16.2488281 18.8057617,15.7569336 C18.1189453,14.9321777 17.5068359,13.8859375 17.0901367,12.5488281 L16.8945312,12.5488281 C16.4896973,12.5488281 16.1621094,12.2212402 16.1621094,11.8164062 C16.1621094,11.4115723 16.4896973,11.0839844 16.8945312,11.0839844 L19.0917969,11.0839844 L19.0917969,10.3515625 C19.0917969,9.94672852 19.4193848,9.61914062 19.8242188,9.61914062 C20.2290527,9.61914062 20.5566406,9.94672852 20.5566406,10.3515625 L20.5566406,11.0839844 L22.8027344,11.0839844 C23.2075684,11.0839844 23.5351562,11.4115723 23.5351562,11.8164062 C23.5351562,12.2212402 23.2075684,12.5488281 22.8027344,12.5488281 Z" id="Shape"></path>
                <path d="M11.9220703,1.92475586 C11.7854492,0.827539063 10.8477539,0 9.74199219,0 L2.19726562,0 C0.985644531,0 0,0.985644531 0,2.19726562 L0,18.4082031 C0,19.6198242 0.985644531,20.6054688 2.19726562,20.6054688 C6.57568359,20.6054688 9.72543945,20.6054688 13.7476074,20.6054688 C13.9612793,20.3612305 14.1403809,20.2083008 14.1479504,19.889502 C14.1498047,19.8095703 11.9319824,2.00405273 11.9220703,1.92475586 Z M8.98164062,13.9993652 C8.59326172,14.0792969 8.19985352,13.8271484 8.11977539,13.425 L7.65166016,11.0839844 L5.58081055,11.0839844 L5.11269531,13.425 C5.0340332,13.8212402 4.65205078,14.0815918 4.25083008,13.9993652 C3.85458984,13.9199707 3.59707031,13.5344727 3.67646484,13.1375 L5.14125977,5.81328125 C5.20991211,5.47138672 5.51035156,5.22460937 5.859375,5.22460937 L7.37304688,5.22460937 C7.72207031,5.22460937 8.02250977,5.47138672 8.09116211,5.81328125 L9.55600586,13.1375 C9.63540039,13.5344727 9.37792969,13.9199707 8.98164062,13.9993652 Z" id="Shape"></path>
                <path d="M8.55766602,22.0703125 L8.68334961,23.0752441 C8.76713867,23.7482422 9.21430664,24.4345215 9.94985352,24.7771973 C11.3379395,23.2491699 10.4981445,24.173584 12.4087891,22.0703125 L8.55766602,22.0703125 Z" id="Path"></path>
            </g>
        </g>
    </g>
</svg>