<?xml version="1.0" encoding="UTF-8"?>
<svg width="25px" height="25px" viewBox="0 0 25 25" version="1.1" xmlns="http://www.w3.org/2000/svg" xmlns:xlink="http://www.w3.org/1999/xlink">
    <title>new_tab</title>
    <g id="Browser-UI's" stroke="none" stroke-width="1" fill="none" fill-rule="evenodd">
        <g id="Browser-Dark-Theme---Sidebar---Settings" transform="translate(-364.000000, -262.000000)" fill="#FFFFFF" fill-rule="nonzero">
            <g id="new_tab" transform="translate(364.000000, 262.000000)">
                <path d="M24.1071336,0 L6.25001296,0 C5.75648174,0 5.35714656,0.399335184 5.35714656,0.8928664 L5.35714656,5.35714656 L0.8928664,5.35714656 C0.399335184,5.35714656 0,5.75648174 0,6.25001296 L0,24.1071336 C0,24.6006648 0.399335184,25 0.8928664,25 L18.749987,25 C19.2435183,25 19.6428534,24.6006648 19.6428534,24.1071336 L19.6428534,19.6428534 L24.1071336,19.6428534 C24.6006648,19.6428534 25,19.2435183 25,18.749987 L25,0.8928664 C25,0.399335184 24.6006648,0 24.1071336,0 L24.1071336,0 Z M23.214319,17.8571206 L19.6428534,17.8571206 L19.6428534,6.25001296 C19.6428534,5.75648174 19.2435183,5.35714656 18.749987,5.35714656 L7.14287936,5.35714656 L7.14287936,1.7857328 L23.214319,1.7857328 L23.214319,17.8571206 L23.214319,17.8571206 Z" id="Shape"></path>
                <polygon id="Path" points="1.7857328 23.2142672 1.7857328 7.14287936 17.8571725 7.14287936 17.8571725 23.2142672"></polygon>
            </g>
        </g>
    </g>
</svg>