<?xml version="1.0" encoding="UTF-8"?>
<svg width="15px" height="15px" viewBox="0 0 15 15" version="1.1" xmlns="http://www.w3.org/2000/svg" xmlns:xlink="http://www.w3.org/1999/xlink">
    <title>new_tab</title>
    <g id="Browser-UI's" stroke="none" stroke-width="1" fill="none" fill-rule="evenodd">
        <g id="Browser-Dark-Theme---Sidebar---Settings" transform="translate(-364.000000, -262.000000)" fill="#FFFFFF" fill-rule="nonzero">
            <g id="new_tab" transform="translate(364.000000, 262.000000)">
                <path d="M14.4642802,0 L3.75000778,0 C3.45388905,0 3.21428794,0.239601111 3.21428794,0.53571984 L3.21428794,3.21428794 L0.53571984,3.21428794 C0.239601111,3.21428794 0,3.45388905 0,3.75000778 L0,14.4642802 C0,14.7603989 0.239601111,15 0.53571984,15 L11.2499922,15 C11.546111,15 11.7857121,14.7603989 11.7857121,14.4642802 L11.7857121,11.7857121 L14.4642802,11.7857121 C14.7603989,11.7857121 15,11.546111 15,11.2499922 L15,0.53571984 C15,0.239601111 14.7603989,0 14.4642802,0 L14.4642802,0 Z M13.9285914,10.7142724 L11.7857121,10.7142724 L11.7857121,3.75000778 C11.7857121,3.45388905 11.546111,3.21428794 11.2499922,3.21428794 L4.28572762,3.21428794 L4.28572762,1.07143968 L13.9285914,1.07143968 L13.9285914,10.7142724 L13.9285914,10.7142724 Z" id="Shape"></path>
                <polygon id="Path" points="1.07143968 13.9285603 1.07143968 4.28572762 10.7143035 4.28572762 10.7143035 13.9285603"></polygon>
            </g>
        </g>
    </g>
</svg>