<?xml version="1.0" encoding="UTF-8"?>
<svg width="25px" height="29px" viewBox="0 0 25 29" version="1.1" xmlns="http://www.w3.org/2000/svg" xmlns:xlink="http://www.w3.org/1999/xlink">
    <title>privacy</title>
    <defs>
        <linearGradient x1="-6.55784712e-15%" y1="50%" x2="100%" y2="50%" id="linearGradient-1">
            <stop stop-color="#9725FF" offset="0%"></stop>
            <stop stop-color="#401BFF" offset="100%"></stop>
        </linearGradient>
        <linearGradient x1="100%" y1="50%" x2="0%" y2="50%" id="linearGradient-2">
            <stop stop-color="#461CFF" offset="0%"></stop>
            <stop stop-color="#8923FF" offset="100%"></stop>
        </linearGradient>
    </defs>
    <g id="Browser-UI's" stroke="none" stroke-width="1" fill="none" fill-rule="evenodd">
        <g id="Browser-Dark-Theme---Sidebar---Settings" transform="translate(-365.000000, -297.000000)" fill-rule="nonzero">
            <g id="privacy" transform="translate(365.000000, 297.000000)">
                <path d="M12.4024952,28.8461511 L11.7387455,28.5609388 C11.2587457,28.3515425 0,23.4307285 0,14.4050241 L0,6.61283272 C0,5.0586616 1.03340085,3.67899684 2.56499901,3.18787877 L12.5,0 L22.4362414,3.1890822 C23.9683598,3.67857637 25.0018141,5.05869956 25,6.61283272 L25,14.4050241 C25,24.6810894 13.5787448,28.4634612 13.092495,28.6199068 L12.4024952,28.8461511 Z" id="Shape" fill="#FFFFFF"></path>
                <path d="M12.4999952,3.80523695 L3.74999856,6.61283272 L3.74999856,14.4050241 C3.74999856,20.0250294 10.429996,23.8483177 12.5962452,24.9386228 C14.7737443,24.0637312 21.2499986,20.9131587 21.2499986,14.4050241 L21.2499986,6.61283272 L12.4999952,3.80523695 Z" id="Path" stroke="url(#linearGradient-2)" fill="url(#linearGradient-1)"></path>
                <g id="flash" transform="translate(8.653845, 7.692307)" fill="#FFFFFF">
                    <path d="M7.67112206,4.6168693 C7.63403043,4.53788779 7.55414688,4.48719659 7.46615037,4.48719659 L4.78515991,4.48719659 L7.43107373,0.344400429 C7.47519129,0.275304748 7.47789561,0.187804586 7.43809966,0.116237445 C7.39827719,0.0444336763 7.32223803,0 7.23988877,0 L3.61999488,0 C3.53425197,0 3.4559592,0.0480094041 3.41751541,0.124072496 L0.023856594,6.85485423 C-0.0112200513,6.92418654 -0.00737567223,7.00674378 0.0337989538,7.07292104 C0.0752121965,7.1390983 0.147831193,7.17948299 0.226336066,7.17948299 L2.55279523,7.17948299 L0.0177321004,13.1501334 C-0.0254840235,13.2522256 0.0129862807,13.3706716 0.108220831,13.4285669 C0.144861741,13.4507837 0.185585647,13.4615372 0.226097449,13.4615372 C0.291027687,13.4615372 0.355056484,13.4339305 0.399412665,13.3818984 L7.63922697,4.85623273 C7.69599122,4.78939817 7.70821369,4.69606116 7.67112206,4.6168693 Z" id="Path"></path>
                </g>
            </g>
        </g>
    </g>
</svg>