<?xml version="1.0" encoding="UTF-8"?>
<svg width="13px" height="15px" viewBox="0 0 13 15" version="1.1" xmlns="http://www.w3.org/2000/svg" xmlns:xlink="http://www.w3.org/1999/xlink">
    <title>privacy_dark</title>
    <g id="Browser-UI's" stroke="none" stroke-width="1" fill="none" fill-rule="evenodd">
        <g id="Browser-White-Theme---Sidebar---Settings" transform="translate(-365.000000, -297.000000)" fill-rule="nonzero">
            <g id="privacy_dark" transform="translate(365.000000, 297.000000)">
                <path d="M6.44929814,15 L6.10414824,14.8516896 C5.85454831,14.7428035 0,12.18398 0,7.49061327 L0,3.43867334 C0,2.63050428 0.537368492,1.91307854 1.33379962,1.65769712 L6.5,0 L11.6668466,1.6583229 C12.4635483,1.91285989 13.0009446,2.63052402 13,3.43867334 L13,7.49061327 C13,12.8341677 7.06094796,14.8010013 6.80809804,14.8823529 L6.44929814,15 Z" id="Shape" fill="#1B1C1E"></path>
                <path d="M6.49999813,1.9787234 L1.94999944,3.43867334 L1.94999944,7.49061327 C1.94999944,10.4130163 5.42359844,12.4011264 6.55004811,12.9680851 C7.68234778,12.5131414 11.0499968,10.8748436 11.0499968,7.49061327 L11.0499968,3.43867334 L6.49999813,1.9787234 Z" id="Path" fill="#FFFFFF"></path>
                <g id="flash" transform="translate(4.500000, 4.000000)" fill="#1B1C1E">
                    <path d="M3.98898385,2.40077227 C3.9696962,2.35970187 3.92815675,2.33334245 3.88239856,2.33334245 L2.48828339,2.33334245 L3.86415871,0.17908824 C3.88709984,0.143158483 3.88850609,0.0976583939 3.86781219,0.0604434774 C3.84710451,0.0231055139 3.80756414,0 3.76474252,0 L1.88239752,0 C1.8378112,0 1.79709895,0.0249648925 1.77710818,0.0645177041 L0.0124054301,3.56452454 C-0.00583442726,3.60057734 -0.00383534992,3.64350712 0.0175754577,3.67791929 C0.0391103459,3.71233147 0.0768722275,3.73333151 0.117694765,3.73333151 L1.32745365,3.73333151 L0.00922069309,6.83807 C-0.0132516935,6.89115799 0.00675286658,6.95274991 0.0562748375,6.98285544 C0.0753281126,6.99440819 0.0965045456,7 0.117570685,7 C0.151334412,7 0.184629389,6.9856445 0.207694606,6.95858781 L3.9723984,2.52524126 C4.00191582,2.49048729 4.0082715,2.44195204 3.98898385,2.40077227 Z" id="Path"></path>
                </g>
            </g>
        </g>
    </g>
</svg>