<?xml version="1.0" encoding="UTF-8"?>
<svg width="25px" height="28px" viewBox="0 0 25 28" version="1.1" xmlns="http://www.w3.org/2000/svg" xmlns:xlink="http://www.w3.org/1999/xlink">
    <title>reset</title>
    <g id="Browser-UI's" stroke="none" stroke-width="1" fill="none" fill-rule="evenodd">
        <g id="Browser-Dark-Theme---Sidebar---Settings" transform="translate(-365.000000, -637.000000)" fill="#FFFFFF" fill-rule="nonzero">
            <g id="reset" transform="translate(365.000000, 637.000000)">
                <path d="M12.4954984,0 L12.4954984,0 C13.4367584,0 14.1998112,0.76327674 14.1998112,1.70481299 L14.1998112,7.3875407 C14.1998112,8.32907695 13.4367584,9.09235369 12.4954984,9.09235369 L12.4954984,9.09235369 C11.5542384,9.09235369 10.7911857,8.32907695 10.7911857,7.3875407 L10.7911857,1.70481299 C10.7911857,0.76327674 11.5541852,0 12.4954984,0 Z" id="Path"></path>
                <path d="M16.4721927,5.6145352 L16.4721927,5.6145352 C16.4638309,6.18681961 16.7522858,6.72266364 17.2346063,7.03064876 C21.5183964,9.64876203 22.8692773,15.2449172 20.251879,19.5299114 C17.6344807,23.8149056 12.0400741,25.1662362 7.75628398,22.548123 C3.47249388,19.9300097 2.12161299,14.3338545 4.73901129,10.0488071 C5.48688503,8.82443168 6.51383999,7.79445825 7.73588549,7.04311521 C8.22646126,6.73513008 8.52269212,6.19497074 8.5187509,5.61560071 L8.5187509,5.61560071 C8.52136063,4.67406446 7.76043824,3.90870998 6.81917827,3.90609948 C6.49589144,3.9051938 6.17899579,3.99629474 5.90550685,4.16880051 C0.0418720913,7.81198586 -1.75900063,15.5200847 1.88306246,21.3853872 C5.52512555,27.2506898 13.2309626,29.0520911 19.0945441,25.408959 C24.9581256,21.7658269 26.7589983,14.0577281 23.1169353,8.19242554 C22.1031355,6.55980072 20.7266899,5.18295113 19.0945441,4.16885378 C18.2958073,3.66481517 17.2398258,3.90391519 16.7359351,4.70288645 C16.5637995,4.97576308 16.4724057,5.29184606 16.4721927,5.6145352 Z" id="Path"></path>
            </g>
        </g>
    </g>
</svg>