<?xml version="1.0" encoding="UTF-8"?>
<svg width="14px" height="15px" viewBox="0 0 14 15" version="1.1" xmlns="http://www.w3.org/2000/svg" xmlns:xlink="http://www.w3.org/1999/xlink">
    <title>reset_dark</title>
    <g id="Browser-UI's" stroke="none" stroke-width="1" fill="none" fill-rule="evenodd">
        <g id="Browser-White-Theme---Sidebar---Settings" transform="translate(-365.000000, -637.000000)" fill="#1B1C1E" fill-rule="nonzero">
            <g id="reset_dark" transform="translate(365.000000, 637.000000)">
                <path d="M6.86752592,0 L6.86752592,0 C7.38484241,0 7.80421621,0.419496896 7.80421621,0.936965218 L7.80421621,4.06019237 C7.80421621,4.57766069 7.38484241,4.99715759 6.86752592,4.99715759 L6.86752592,4.99715759 C6.35020944,4.99715759 5.93083564,4.57766069 5.93083564,4.06019237 L5.93083564,0.936965218 C5.93083564,0.419496896 6.35018017,0 6.86752592,0 Z" id="Path"></path>
                <path d="M9.05311708,3.08574854 L9.05311708,3.08574854 C9.04852145,3.40027606 9.20705628,3.69477594 9.47213963,3.86404456 C11.8265107,5.30295961 12.5689548,8.3786065 11.1304327,10.7336393 C9.69191059,13.0886721 6.61722472,13.8313634 4.26285368,12.3924484 C1.90848264,10.9535333 1.1660385,7.87788643 2.60456061,5.52282436 C3.01559201,4.84990765 3.58000646,4.28383426 4.25164266,3.87089612 C4.52126311,3.70162749 4.68407159,3.40475592 4.68190549,3.08633415 L4.68190549,3.08633415 C4.6833398,2.56886583 4.26513686,2.148227 3.74782038,2.14679228 C3.57014194,2.14629451 3.39597609,2.19636359 3.24566657,2.29117276 C0.0230129014,4.29346743 -0.966746746,8.52983854 1.03493113,11.7534088 C3.036609,14.9769791 7.27173706,15.9670292 10.4943614,13.9647639 C13.7169858,11.9624985 14.7067455,7.72612735 12.7050676,4.50255707 C12.1478833,3.60526648 11.3913888,2.84854994 10.4943614,2.29120204 C10.0553757,2.01418242 9.47500824,2.14559179 9.1980699,2.58470639 C9.10346419,2.73467939 9.05323417,2.9083986 9.05311708,3.08574854 Z" id="Path"></path>
            </g>
        </g>
    </g>
</svg>