<?xml version="1.0" encoding="UTF-8"?>
<svg width="15px" height="15px" viewBox="0 0 15 15" version="1.1" xmlns="http://www.w3.org/2000/svg" xmlns:xlink="http://www.w3.org/1999/xlink">
    <title>search</title>
    <defs>
        <linearGradient x1="-6.55784712e-15%" y1="50%" x2="100%" y2="50%" id="linearGradient-1">
            <stop stop-color="#9725FF" offset="0%"></stop>
            <stop stop-color="#401BFF" offset="100%"></stop>
        </linearGradient>
    </defs>
    <g id="Browser-UI's" stroke="none" stroke-width="1" fill="none" fill-rule="evenodd">
        <g id="Browser-Dark-Theme---Sidebar---Settings" transform="translate(-364.000000, -367.000000)" fill="url(#linearGradient-1)" fill-rule="nonzero">
            <g id="search" transform="translate(364.000000, 367.000000)">
                <path d="M14.726261,13.4043948 L11.8227982,10.4997056 C13.9953073,7.59647639 13.4029348,3.48175551 10.4997056,1.30924642 C7.59647639,-0.863262664 3.48175551,-0.270890257 1.30924642,2.63233897 C-0.863262664,5.5355682 -0.270890257,9.65028908 2.63233897,11.8227982 C4.96445311,13.5679418 8.16756229,13.5679418 10.4997056,11.8227982 L13.4043948,14.7274874 C13.7694191,15.0925117 14.3612367,15.0925117 14.7262318,14.7274874 C15.0912561,14.3624631 15.0912561,13.7706455 14.7262318,13.4056504 L14.726261,13.4043948 Z M6.59022877,11.2621657 C4.00997638,11.2621657 1.91829181,9.17048116 1.91829181,6.59022877 C1.91829181,4.00997638 4.00997638,1.91829181 6.59022877,1.91829181 C9.17048116,1.91829181 11.2621657,4.00997638 11.2621657,6.59022877 C11.259421,9.16931317 9.16934237,11.259421 6.59022877,11.2621657 Z" id="Shape"></path>
            </g>
        </g>
    </g>
</svg>