<?xml version="1.0" encoding="UTF-8"?>
<svg width="25px" height="25px" viewBox="0 0 25 25" version="1.1" xmlns="http://www.w3.org/2000/svg" xmlns:xlink="http://www.w3.org/1999/xlink">
    <title>search</title>
    <g id="Browser-UI's" stroke="none" stroke-width="1" fill="none" fill-rule="evenodd">
        <g id="Browser-Dark-Theme---Sidebar---Settings" transform="translate(-364.000000, -367.000000)" fill="#FFFFFF" fill-rule="nonzero">
            <g id="search" transform="translate(364.000000, 367.000000)">
                <path d="M24.5437683,22.340658 L19.7046636,17.4995094 C23.3255121,12.660794 22.3382247,5.80292585 17.4995094,2.18207737 C12.660794,-1.43877111 5.80292585,-0.451483761 2.18207737,4.38723162 C-1.43877111,9.225947 -0.451483761,16.0838151 4.38723162,19.7046636 C8.27408851,22.6132364 13.6126038,22.6132364 17.4995094,19.7046636 L22.340658,24.5458123 C22.9490318,25.1541861 23.9353945,25.1541861 24.5437197,24.5458123 C25.1520934,23.9374385 25.1520934,22.9510758 24.5437197,22.3427507 L24.5437683,22.340658 Z M10.9837146,18.7702762 C6.68329397,18.7702762 3.19715301,15.2841353 3.19715301,10.9837146 C3.19715301,6.68329397 6.68329397,3.19715301 10.9837146,3.19715301 C15.2841353,3.19715301 18.7702762,6.68329397 18.7702762,10.9837146 C18.7657016,15.2821886 15.2822373,18.7657016 10.9837146,18.7702762 Z" id="Shape"></path>
            </g>
        </g>
    </g>
</svg>