<?xml version="1.0" encoding="UTF-8"?>
<svg width="14px" height="15px" viewBox="0 0 14 15" version="1.1" xmlns="http://www.w3.org/2000/svg" xmlns:xlink="http://www.w3.org/1999/xlink">
    <title>setting</title>
    <g id="Browser-UI's" stroke="none" stroke-width="1" fill="none" fill-rule="evenodd">
        <g id="Browser-Dark-Theme---Sidebar---Settings" transform="translate(-365.000000, -602.000000)" fill="#FFFFFF" fill-rule="nonzero">
            <g id="setting" transform="translate(365.000000, 602.000000)">
                <path d="M6.74823019,4.99999994 C5.36751832,4.99999994 4.24823019,6.11928807 4.24823019,7.49999994 C4.24823019,8.88071182 5.36751832,9.99999994 6.74823019,9.99999994 C8.12894207,9.99999994 9.24823019,8.88071182 9.24823019,7.49999994 C9.24823019,6.83695872 8.98483809,6.20107394 8.51599714,5.73223299 C8.0471562,5.26339205 7.41127142,4.99999994 6.74823019,4.99999994 Z M6.74823019,8.74999994 C6.05787425,8.74999994 5.49823019,8.19035588 5.49823019,7.49999994 C5.49823019,6.80964401 6.05787425,6.24999994 6.74823019,6.24999994 C7.43858613,6.24999994 7.99823019,6.80964401 7.99823019,7.49999994 C7.99823019,8.19035588 7.43858613,8.74999994 6.74823019,8.74999994 Z" id="Shape"></path>
                <path d="M12.5569802,8.68749994 L12.2794802,8.52749994 C12.4044115,7.84777611 12.4044115,7.15097378 12.2794802,6.47124994 L12.5569802,6.31124994 C13.1375368,5.97631346 13.4953067,5.35709613 13.4955215,4.68685112 C13.4957363,4.01660612 13.1383633,3.39715961 12.5580215,3.0618511 C11.9776797,2.7265426 11.2625368,2.72631344 10.6819802,3.06124994 L10.4038552,3.22187494 C9.87856392,2.77307404 9.27489665,2.42515489 8.62323019,2.19562494 L8.62323019,1.87499994 C8.62323016,0.83946606 7.78376408,0 6.74823019,0 C5.71269631,0 4.87323022,0.83946606 4.87323019,1.87499994 L4.87323019,2.19562494 C4.2215977,2.42597912 3.61813522,2.77474992 3.09323019,3.22437494 L2.81385519,3.06249994 C1.91639247,2.54473299 0.769122144,2.85253723 0.251355191,3.74999994 C-0.266411762,4.64746266 0.0413924727,5.79473299 0.938855191,6.31249994 L1.21635519,6.47249994 C1.09142386,7.15222378 1.09142386,7.84902611 1.21635519,8.52874994 L0.938855191,8.68874994 C0.0413924727,9.2065169 -0.266411762,10.3537872 0.251355191,11.2512499 C0.769122144,12.1487127 1.91639247,12.4565169 2.81385519,11.9387499 L3.09198019,11.7781249 C3.61745836,12.2269922 4.22134295,12.5749144 4.87323019,12.8043749 L4.87323019,13.1249999 C4.87323019,14.1605339 5.71269629,15 6.74823019,15 C7.7837641,15 8.62323019,14.1605339 8.62323019,13.1249999 L8.62323019,12.8043749 C9.27486268,12.5740208 9.87832517,12.22525 10.4032302,11.7756249 L10.6826052,11.9368749 C11.5800679,12.4546419 12.7273382,12.1468377 13.2451052,11.2493749 C13.7628721,10.3519122 13.4550679,9.2046419 12.5576052,8.68687494 L12.5569802,8.68749994 Z M10.9644802,6.32749994 C11.176132,7.09441507 11.176132,7.90433481 10.9644802,8.67124994 C10.8884673,8.94579852 11.0077275,9.23700928 11.2544802,9.37937494 L11.9319802,9.77062494 C12.2310769,9.94321393 12.3336317,10.3255907 12.1610427,10.6246874 C11.9884537,10.9237841 11.6060769,11.0263389 11.3069802,10.8537499 L10.6282302,10.4612499 C10.3812511,10.3182039 10.0687411,10.3606436 9.86885519,10.5643749 C9.31255088,11.1322854 8.61171403,11.5374871 7.84198019,11.7362499 C7.56561303,11.8073033 7.37246352,12.0565201 7.37260519,12.3418749 L7.37260519,13.1249999 C7.37260519,13.4701779 7.09278316,13.7499999 6.74760519,13.7499999 C6.40242722,13.7499999 6.12260519,13.4701779 6.12260519,13.1249999 L6.12260519,12.3424999 C6.12274687,12.0571451 5.92959735,11.8079283 5.65323019,11.7368749 C4.88344735,11.5373003 4.18281071,11.1312249 3.62698019,10.5624999 C3.42709428,10.3587686 3.11458432,10.3163289 2.86760519,10.4593749 L2.19010519,10.8512499 C1.99662368,10.9646777 1.75719927,10.9657395 1.56271931,10.8540324 C1.36823934,10.7423252 1.24852332,10.5349771 1.24901486,10.3106989 C1.24950943,10.0864207 1.37013595,9.87960093 1.56510519,9.76874994 L2.24260519,9.37749994 C2.48935789,9.23513428 2.60861808,8.94392352 2.53260519,8.66937494 C2.32095343,7.90245981 2.32095343,7.09254007 2.53260519,6.32562494 C2.60723604,6.05170877 2.48787369,5.76190211 2.24198019,5.61999994 L1.56448019,5.22874994 C1.26538349,5.05616096 1.16282872,4.67378416 1.3354177,4.37468745 C1.50800668,4.07559074 1.89038348,3.97303597 2.18948019,4.14562494 L2.86823019,4.53812494 C3.11451167,4.68147919 3.42657806,4.64009312 3.62698019,4.43749994 C4.18328451,3.86958944 4.88412135,3.46438775 5.65385519,3.26562494 C5.93112687,3.19434212 6.12451675,2.94378506 6.12323019,2.65749994 L6.12323019,1.87499994 C6.12323019,1.52982198 6.40305222,1.24999994 6.74823019,1.24999994 C7.09340816,1.24999994 7.37323019,1.52982198 7.37323019,1.87499994 L7.37323019,2.65749994 C7.37308852,2.94285474 7.56623803,3.19207163 7.84260519,3.26312494 C8.61261206,3.46259493 9.31347692,3.86867728 9.86948019,4.43749994 C10.0693661,4.64123131 10.3818761,4.68367094 10.6288552,4.54062494 L11.3063552,4.14874994 C11.4998367,4.03532221 11.7392611,4.03426038 11.9337411,4.14596753 C12.128221,4.25767469 12.2479371,4.46502282 12.2474455,4.68930101 C12.246951,4.91357919 12.1263244,5.12039896 11.9313552,5.23124994 L11.2538552,5.62249994 C11.0084384,5.76478056 10.8896246,6.05450143 10.9644802,6.32812494 L10.9644802,6.32749994 Z" id="Shape"></path>
            </g>
        </g>
    </g>
</svg>