<?xml version="1.0" encoding="UTF-8"?>
<svg width="25px" height="28px" viewBox="0 0 25 28" version="1.1" xmlns="http://www.w3.org/2000/svg" xmlns:xlink="http://www.w3.org/1999/xlink">
    <title>setting</title>
    <g id="Browser-UI's" stroke="none" stroke-width="1" fill="none" fill-rule="evenodd">
        <g id="Browser-Dark-Theme---Sidebar---Settings" transform="translate(-365.000000, -602.000000)" fill="#FFFFFF" fill-rule="nonzero">
            <g id="setting" transform="translate(365.000000, 602.000000)">
                <path d="M12.5,9.26168751 C9.94245559,9.26168751 7.86915619,11.3349869 7.86915619,13.8925313 C7.86915619,16.4500757 9.94245559,18.5233751 12.5,18.5233751 C15.0575444,18.5233751 17.1308438,16.4500757 17.1308438,13.8925313 C17.1308438,12.6643552 16.6429527,11.4864819 15.7745011,10.6180303 C14.9060494,9.74957859 13.7281761,9.26168751 12.5,9.26168751 Z M12.5,16.2079532 C11.2212278,16.2079532 10.1845781,15.1713035 10.1845781,13.8925313 C10.1845781,12.6137591 11.2212278,11.5771094 12.5,11.5771094 C13.7787722,11.5771094 14.8154219,12.6137591 14.8154219,13.8925313 C14.8154219,15.1713035 13.7787722,16.2079532 12.5,16.2079532 Z" id="Shape"></path>
                <path d="M23.2597656,16.0921821 L22.7457419,15.7958081 C22.9771569,14.5367302 22.9771569,13.2460171 22.7457419,11.9869391 L23.2597656,11.6905651 C24.3351524,11.0701497 24.997863,9.92315017 24.9982609,8.6816302 C24.9986587,7.44011023 24.3366834,6.29268621 23.2616944,5.67158169 C22.1867055,5.05047716 20.8620195,5.05005268 19.7866327,5.67046814 L19.2714514,5.96799985 C18.2984346,5.13666909 17.1802391,4.49220539 15.9731329,4.06703847 L15.9731329,3.47313275 C15.9731328,1.55497448 14.4181583,0 12.5,0 C10.5818417,0 9.0268672,1.55497448 9.02686714,3.47313275 L9.02686714,4.06703847 C7.81982383,4.49373215 6.70200763,5.1397734 5.72970635,5.9726307 L5.21220956,5.67278356 C3.54980569,4.71370441 1.42467381,5.28386174 0.465594652,6.94626561 C-0.493484503,8.60866948 0.0766728304,10.7338014 1.7390767,11.6928805 L2.25310036,11.9892545 C2.02168537,13.2483325 2.02168537,14.5390456 2.25310036,15.7981235 L1.7390767,16.0944976 C0.0766728304,17.0535767 -0.493484503,19.1787086 0.465594652,20.8411125 C1.42467381,22.5035163 3.54980569,23.0736737 5.21220956,22.1145945 L5.72739093,21.8170628 C6.70075387,22.6485164 7.81935195,23.2929859 9.02686714,23.7180242 L9.02686714,24.3119299 C9.02686714,26.2300882 10.5818417,27.7850627 12.5,27.7850627 C14.4181583,27.7850627 15.9731329,26.2300882 15.9731329,24.3119299 L15.9731329,23.7180242 C17.1801762,23.2913305 18.2979924,22.6452892 19.2702936,21.8124319 L19.7877904,22.1111214 C21.4501943,23.0702005 23.5753262,22.5000432 24.5344053,20.8376393 C25.4934845,19.1752355 24.9233272,17.0501036 23.2609233,16.0910244 L23.2597656,16.0921821 Z M20.3099181,11.7206656 C20.7019686,13.1412512 20.7019686,14.641496 20.3099181,16.0620816 C20.1691166,16.5706383 20.3900267,17.1100589 20.847096,17.3737682 L22.1020546,18.0984952 C22.6560827,18.4181883 22.8460487,19.1264792 22.5263557,19.6805072 C22.2066626,20.2345353 21.4983717,20.4245013 20.9443437,20.1048083 L19.6870696,19.3777658 C19.2295809,19.1127964 18.650707,19.1914089 18.2804508,19.5687881 C17.2499874,20.6207501 15.951801,21.3713204 14.5259942,21.7394962 C14.0140689,21.8711109 13.6562908,22.3327447 13.6565532,22.8613181 L13.6565532,24.3119299 C13.6565532,24.951316 13.1382284,25.4696408 12.4988423,25.4696408 C11.8594562,25.4696408 11.3411313,24.951316 11.3411313,24.3119299 L11.3411313,22.8624758 C11.3413938,22.3339024 10.9836157,21.8722686 10.4716904,21.7406539 C9.04579278,21.3709742 7.74797723,20.6187856 6.7183915,19.565315 C6.34813533,19.1879357 5.76926141,19.1093232 5.3117727,19.3742927 L4.05681403,20.1001774 C3.69842096,20.3102839 3.25492615,20.3122508 2.89468361,20.1053314 C2.53444107,19.8984121 2.3126866,19.5143333 2.31359709,19.0988944 C2.3145132,18.6834555 2.53795424,18.3003555 2.89910307,18.0950221 L4.15406175,17.370295 C4.61113104,17.1065858 4.83204115,16.5671651 4.69123963,16.0586085 C4.29918912,14.6380228 4.29918912,13.1377781 4.69123963,11.7171924 C4.82948115,11.2098072 4.60838178,10.6729875 4.15290403,10.4101368 L2.89794536,9.68540972 C2.34391731,9.36571667 2.15395127,8.65742577 2.47364431,8.10339771 C2.79333736,7.54936966 3.50162826,7.3594036 4.05565632,7.67909664 L5.31293041,8.40613912 C5.76912684,8.67167956 6.34717912,8.59501859 6.7183915,8.21974766 C7.74885486,7.16778572 9.04704125,6.41721542 10.4728481,6.04903962 C10.9864489,5.91699977 11.3446722,5.45288353 11.342289,4.92258687 L11.342289,3.47313275 C11.342289,2.83374665 11.8606139,2.3154218 12.5,2.3154218 C13.1393861,2.3154218 13.657711,2.83374665 13.657711,3.47313275 L13.657711,4.92258687 C13.6574485,5.45116027 14.0152266,5.91279405 14.5271519,6.04440878 C15.9534645,6.41389453 17.2517028,7.1660961 18.2816085,8.21974766 C18.6518647,8.59712692 19.2307386,8.67573943 19.6882273,8.41076996 L20.943186,7.6848852 C21.301579,7.47477875 21.7450739,7.47281188 22.1053164,7.67973123 C22.4655589,7.88665058 22.6873134,8.27072932 22.6864029,8.68616821 C22.6854868,9.1016071 22.4620458,9.48470712 22.1008969,9.69004057 L20.8459383,10.4147676 C20.3913435,10.6783193 20.1712602,11.2149802 20.3099181,11.7218233 L20.3099181,11.7206656 Z" id="Shape"></path>
            </g>
        </g>
    </g>
</svg>