<?xml version="1.0" encoding="UTF-8"?>
<svg width="25px" height="24px" viewBox="0 0 25 24" version="1.1" xmlns="http://www.w3.org/2000/svg" xmlns:xlink="http://www.w3.org/1999/xlink">
    <title>sync</title>
    <g id="Browser-UI's" stroke="none" stroke-width="1" fill="none" fill-rule="evenodd">
        <g id="Browser-Dark-Theme---Sidebar---Settings" transform="translate(-364.000000, -332.000000)" fill="#FFFFFF" fill-rule="nonzero">
            <g id="sync" transform="translate(364.000000, 332.000000)">
                <path d="M23.3490105,9.60282593 C22.2073541,8.03037909 20.5790313,6.89146229 18.7242275,6.36806002 C18.2236554,4.52597837 17.1400989,2.90182859 15.6403447,1.74560806 C12.5482296,-0.624231966 8.26837605,-0.576681819 5.22817728,1.86128961 C2.18797851,4.29926105 1.15474057,8.51234195 2.71448228,12.1110104 C0.547724719,13.5546133 -0.464114224,16.2434566 0.203231356,18.7843652 C0.938807161,21.5131595 3.40763545,23.3865451 6.1960839,23.3318356 L16.2285938,23.3318356 C20.4404269,23.410355 24.0928661,20.3933891 24.8701289,16.1938067 C25.2747044,13.8782113 24.7248399,11.4956574 23.3490105,9.60282593 Z M21.7872873,15.6573192 C21.2393948,18.3171163 18.907064,20.2078742 16.2285938,20.1636026 L6.1960839,20.1636026 C4.84338146,20.2016488 3.63193759,19.3193565 3.23505669,18.007092 C3.03035383,17.244224 3.13535343,16.4299762 3.52660799,15.7461783 C3.91786255,15.0623805 4.56278381,14.5659873 5.3173543,14.3678484 C5.82014741,14.2360118 6.22544267,13.8592844 6.39871975,13.3627047 C6.57199683,12.8661251 6.4905859,12.3146606 6.18150781,11.8913462 C5.05246087,10.3518145 4.80280641,8.32418989 5.52388059,6.55027949 C6.24495477,4.77636909 7.83095093,3.51646722 9.70163193,3.23150934 C9.96923068,3.1924963 10.239215,3.17273353 10.5095634,3.17234464 C11.6812503,3.16881031 12.8217083,3.55540328 13.7558654,4.27280193 C14.9038285,5.15565919 15.6585809,6.46530475 15.8537802,7.91310165 C15.9470292,8.62108099 16.4958402,9.17819379 17.1937388,9.27332969 C18.6493414,9.47991929 19.9608716,10.2743885 20.8304715,11.4763077 C21.7008812,12.6776656 22.0474818,14.1885404 21.7893696,15.6562631 L21.7872873,15.6573192 Z" id="Shape"></path>
            </g>
        </g>
    </g>
</svg>