<?xml version="1.0" encoding="UTF-8"?>
<svg width="15px" height="14px" viewBox="0 0 15 14" version="1.1" xmlns="http://www.w3.org/2000/svg" xmlns:xlink="http://www.w3.org/1999/xlink">
    <title>sync</title>
    <g id="Browser-UI's" stroke="none" stroke-width="1" fill="none" fill-rule="evenodd">
        <g id="Browser-Dark-Theme---Sidebar---Settings" transform="translate(-364.000000, -332.000000)" fill="#FFFFFF" fill-rule="nonzero">
            <g id="sync" transform="translate(364.000000, 332.000000)">
                <path d="M14.0094063,5.76169556 C13.3244125,4.81822746 12.3474188,4.13487737 11.2345365,3.82083601 C10.9341932,2.71558702 10.2840594,1.74109715 9.38420684,1.04736484 C7.52893776,-0.37453918 4.96102563,-0.346009092 3.13690637,1.11677377 C1.31278711,2.57955663 0.692844343,5.10740517 1.62868937,7.26660623 C0.328634831,8.13276796 -0.278468534,9.74607394 0.121938814,11.2706191 C0.563284296,12.9078957 2.04458127,14.0319271 3.71765034,13.9991014 L9.73715629,13.9991014 C12.2642562,14.046213 14.4557196,12.2360335 14.9220773,9.716284 C15.1648227,8.32692676 14.834904,6.89739447 14.0094063,5.76169556 Z M13.0723724,9.39439152 C12.7436369,10.9902698 11.3442384,12.1247245 9.73715629,12.0981616 L3.71765034,12.0981616 C2.90602887,12.1209893 2.17916255,11.5916139 1.94103401,10.8042552 C1.8182123,10.3465344 1.88121206,9.85798573 2.11596479,9.44770701 C2.35071753,9.03742828 2.73767029,8.73959236 3.19041258,8.62070902 C3.49208845,8.54160706 3.7352656,8.31557064 3.83923185,8.01762285 C3.9431981,7.71967505 3.89435154,7.38879637 3.70890469,7.13480774 C3.03147652,6.21108869 2.88168384,4.99451393 3.31432835,3.93016769 C3.74697286,2.86582145 4.69857056,2.10988033 5.82097916,1.93890561 C5.98153841,1.91549778 6.14352901,1.90364012 6.30573804,1.90340679 C7.00875019,1.90128618 7.69302498,2.13324197 8.25351923,2.56368116 C8.9422971,3.09339552 9.39514853,3.87918285 9.51226814,4.74786099 C9.56821752,5.17264859 9.89750409,5.50691628 10.3162433,5.56399782 C11.1896048,5.68795157 11.9765229,6.16463309 12.4982829,6.88578463 C13.0205287,7.60659939 13.2284891,8.51312422 13.0736218,9.39375788 L13.0723724,9.39439152 Z" id="Shape"></path>
            </g>
        </g>
    </g>
</svg>